# xmcd
#
# Track frame offsets:
#	150
#	17922
#	31632
#	49235
#	66582
#	86292
#	89010
#	106492
#	122072
#	140102
#	158035
#	171775
#	186185
#	201387
#	221452
#
# Disc length: 3284 seconds
#
# Revision: 1
# Processed by: cddbd v1.5.1PL0 Copyright (c) Steve Scherf et al.
# Submitted via: CDex 1.50Beta5
#
DISCID=d90cd20f
DTITLE=Hi-Fi SET - TWINS〜SUPER BEST OF HI-FI SET Disc 2
DYEAR=1996
DGENRE=
TTITLE0=ファッショナブル・ブルー
TTITLE1=風の街
TTITLE2=遠くからみちびいて
TTITLE3=海を見ていた午後
TTITLE4=JE M’ENNUIE
TTITLE5=リトル・バロック
TTITLE6=海辺の避暑地に
TTITLE7=恋の日記
TTITLE8=卒業写真
TTITLE9=空港まで
TTITLE10=十円木馬
TTITLE11=スカイレストラン
TTITLE12=メモランダム
TTITLE13=フィーリング
TTITLE14=朝陽の中で微笑んで
EXTD=
EXTT0=
EXTT1=
EXTT2=
EXTT3=
EXTT4=
EXTT5=
EXTT6=
EXTT7=
EXTT8=
EXTT9=
EXTT10=
EXTT11=
EXTT12=
EXTT13=
EXTT14=
PLAYORDER=
